{"title":"Nightmare(1964)MPEG-4[DaScubaDude]","uid":13938352,"size":828221284,"categoryP":"video","categoryS":"movies","magnet":"?xt=urn:btih:14512794d20fd6cdfa9fccd55920b360bae28390&amp;dn=Nightmare%281964%29MPEG-4%5BDaScubaDude%5D&amp;tr=udp%3A%2F%2Ftracker.leechers-paradise.org%3A6969&amp;tr=udp%3A%2F%2Fzer0day.ch%3A1337&amp;tr=udp%3A%2F%2Fopen.demonii.com%3A1337&amp;tr=udp%3A%2F%2Ftracker.coppersurfer.tk%3A6969&amp;tr=udp%3A%2F%2Fexodus.desync.com%3A6969","seeders":0,"leechers":2,"uploader":"dascuba","files":1,"time":1458445078,"description":"Nightmare (1964)\r\n1h 23min | Horror, Mystery, Thriller | 17 June 1964 (USA)\r\nJanet is a young student at a private school; her nights are troubled by horrible dreams in which she sees her mother, who is in fact locked in an insane asylum, haunting her. Expelled ... See full summary »\r\nDirector: Freddie Francis\r\nWriter: Jimmy Sangster\r\nStars: David Knight, Moira Redmond, Jennie Linden \r\n\r\nGeneral\r\nComplete name                            : NightmareHAMMER_HORROR_Title2.mp4\r\nFormat                                   : MPEG-4\r\nFormat profile                           : Base Media\r\nCodec ID                                 : isom\r\nFile size                                : 790 MiB\r\nDuration                                 : 1h 22mn\r\nOverall bit rate                         : 1 342 Kbps\r\nMovie name                               : HAMMER_HORROR\r\nGenre                                    : Horror\r\nWriting application                      : Lavf54.6.100\r\n\r\nVideo\r\nID                                       : 1\r\nFormat                                   : AVC\r\nFormat/Info                              : Advanced Video Codec\r\nFormat profile                           :   \r\nFormat settings, CABAC                   : No\r\nFormat settings, ReFrames                : 6 frames\r\nFormat settings, GOP                     : M=1, N=60\r\nCodec ID                                 : avc1\r\nCodec ID/Info                            : Advanced Video Coding\r\nDuration                                 : 1h 22mn\r\nBit rate                                 : 1 198 Kbps\r\nWidth                                    : 720 pixels\r\nHeight                                   : 404 pixels\r\nDisplay aspect ratio                     : 16:9\r\nFrame rate mode                          : Constant\r\nFrame rate                               : 29.970 fps\r\nColor space                              : YUV\r\nChroma subsampling                       : 4:2:0\r\nBit depth                                : 8 bits\r\nScan type                                : Progressive\r\nBits/(Pixel*Frame)                       : 0.137\r\nStream size                              : 705 MiB (89%)\r\n\r\nAudio\r\nID                                       : 2\r\nFormat                                   : AAC\r\nFormat/Info                              : Advanced Audio Codec\r\nFormat profile                           : LC\r\nCodec ID                                 : 40\r\nDuration                                 : 1h 22mn\r\nBit rate mode                            : Constant\r\nBit rate                                 : 137 Kbps\r\nChannel(s)                               : 2 channels\r\nChannel positions                        : Front: L R\r\nSampling rate                            : 44.1 KHz\r\nCompression mode                         : Lossy\r\nStream size                              : 80.7 MiB (10%)","torrent":{"xt":"urn:btih:14512794d20fd6cdfa9fccd55920b360bae28390","amp;dn":"Nightmare%281964%29MPEG-4%5BDaScubaDude%5D","amp;tr":["udp%3A%2F%2Ftracker.leechers-paradise.org%3A6969","udp%3A%2F%2Fzer0day.ch%3A1337","udp%3A%2F%2Fopen.demonii.com%3A1337","udp%3A%2F%2Ftracker.coppersurfer.tk%3A6969","udp%3A%2F%2Fexodus.desync.com%3A6969"],"infoHash":"14512794d20fd6cdfa9fccd55920b360bae28390","infoHashBuffer":{"type":"Buffer","data":[20,81,39,148,210,15,214,205,250,159,204,213,89,32,179,96,186,226,131,144]},"announce":[],"urlList":[]}}